<?xml version="1.0" encoding="UTF-8"?>
<svg id="Capa_1" data-name="Capa 1" xmlns="http://www.w3.org/2000/svg" viewBox="0 0 1000 1000">
  <g id="Objeto_generativo" data-name="Objeto generativo">
    <path d="M871.08,57.3c-73.02,108.69-207.19,149.16-312.38,219.43-153.08,102.25-250.28,244.01-276.16,426.46,138.18-99.68,323.66-134.92,486.89-84.68-181.9-34.87-379.82,15.36-510.86,150.63,158.77,48.2,364.3,30.42,487.37-91.58,161.06-159.65,104.95-402.42,127.34-604.31l.06,55.77c8.77,61.03-1.95,141.7,8.45,200.57,11.6,65.72,28.53,97.71,21.68,170.21-30.17,319.72-407.99,479.62-658.04,283.64-40.65,45.17-64.78,101.65-81.15,159.27l-49.37-47.58c26.57-51.24,63.81-95.55,102.67-138.02C27.07,574.88,65.08,261.84,286.24,120.13c141.09-90.41,336.82-81.18,464.23,30.1,45.59-22.9,86.71-54.63,120.61-92.94Z"/>
  </g>
</svg>